<svg xmlns="http://www.w3.org/2000/svg" xmlns:xlink="http://www.w3.org/1999/xlink" viewBox="0 0 180 180"><defs><style>.cls-1{font-size:60px;}.cls-1,.cls-2{fill:#fff;font-family:ComicSansMS-Bold, Comic Sans MS;font-weight:700;}.cls-2{font-size:20px;}.cls-3{fill:url(#linear-gradient);}.cls-4{fill:url(#linear-gradient-2);}.cls-5{fill:url(#linear-gradient-3);}.cls-6{fill:url(#linear-gradient-4);}.cls-7{fill:url(#linear-gradient-5);}.cls-8{fill:url(#linear-gradient-6);}.cls-9{fill:url(#linear-gradient-7);}</style><linearGradient id="linear-gradient" x1="86.45" y1="57.52" x2="104.94" y2="57.52" gradientUnits="userSpaceOnUse"><stop offset="0" stop-color="#6b57ff"/><stop offset="1" stop-color="#07c3f2"/></linearGradient><linearGradient id="linear-gradient-2" x1="12.53" y1="70.59" x2="31.01" y2="70.59" gradientUnits="userSpaceOnUse"><stop offset="0" stop-color="#fcf84a"/><stop offset="1" stop-color="#fc801d"/></linearGradient><linearGradient id="linear-gradient-3" x1="12.53" y1="36.33" x2="49.49" y2="36.33" gradientUnits="userSpaceOnUse"><stop offset="0" stop-color="#fcf84a"/><stop offset="1" stop-color="#dd1265"/></linearGradient><linearGradient id="linear-gradient-4" x1="49.49" y1="57.52" x2="86.45" y2="57.52" gradientUnits="userSpaceOnUse"><stop offset="0" stop-color="#dd1265"/><stop offset="1" stop-color="#6b57ff"/></linearGradient><linearGradient id="linear-gradient-5" x1="54.92" y1="91.78" x2="104.93" y2="91.78" xlink:href="#linear-gradient-4"/><linearGradient id="linear-gradient-6" x1="31.01" y1="68.67" x2="54.92" y2="68.67" gradientUnits="userSpaceOnUse"><stop offset="0" stop-color="#fc801d"/><stop offset="1" stop-color="#dd1265"/></linearGradient><linearGradient id="linear-gradient-7" x1="174.78" y1="153.94" x2="20.4" y2="103.22" gradientUnits="userSpaceOnUse"><stop offset="0" stop-color="#3dea62"/><stop offset="0.2" stop-color="#07c3f2"/><stop offset="0.5" stop-color="#6b57ff"/><stop offset="1" stop-color="#fc801d"/></linearGradient></defs><title>harpoon7Artboard 1 copy 2</title><g id="Layer_12_copy_5" data-name="Layer 12 copy 5"><text class="cls-1" transform="translate(104.65 64.04)">E<tspan x="37.47" y="0">r</tspan></text><text class="cls-2" transform="translate(165.25 65.75) rotate(90)">o<tspan x="10.5" y="0">t</tspan><tspan x="19.94" y="0">o</tspan><tspan x="30.45" y="0">u</tspan><tspan x="40.87" y="0">r</tspan><tspan x="50.48" y="0">t</tspan><tspan x="59.88" y="0">e</tspan><tspan x="71.07" y="0">s</tspan></text><polygon class="cls-3" points="104.94 17.85 104.94 97.19 86.45 78.69 86.45 17.85 104.94 17.85"/><polygon class="cls-4" points="31.01 49.4 31.01 110.26 12.53 110.26 12.53 30.91 31.01 49.4"/><polygon class="cls-5" points="49.49 41.75 49.49 54.82 31.01 36.34 19.05 24.38 12.53 17.86 12.53 17.85 25.59 17.85 31.01 23.27 49.49 41.75"/><polygon class="cls-6" points="86.45 73.3 86.45 78.69 81.05 73.3 71.8 64.06 67.97 60.22 62.56 54.82 49.49 41.75 49.49 36.34 49.51 36.34 67.97 54.82 77.21 64.06 86.45 73.3"/><polygon class="cls-7" points="104.93 110.26 91.88 110.26 73.4 91.78 67.97 86.35 54.92 73.3 67.97 73.3 86.45 91.78 98.41 103.73 104.93 110.26"/><polygon class="cls-8" points="54.92 73.3 31.01 73.3 31.01 64.05 45.66 64.05 49.49 67.87 54.92 73.3"/><path class="cls-9" d="M167.47,159.71q-5.72,1-11.53,1.55a177.81,177.81,0,0,1-18.11.92A176.34,176.34,0,0,1,15.21,112.79a65.32,65.32,0,0,0,89.72-2.53,66.56,66.56,0,0,0,6.08-7Z"/></g></svg>