<svg xmlns="http://www.w3.org/2000/svg" xmlns:xlink="http://www.w3.org/1999/xlink" viewBox="0 0 200 200"><defs><style>.cls-1{fill:url(#linear-gradient);}.cls-2{fill:url(#linear-gradient-2);}.cls-3{fill:#fff;}.cls-4{fill:url(#radial-gradient);}</style><linearGradient id="linear-gradient" x1="24.01" y1="21.56" x2="140.44" y2="148.2" gradientUnits="userSpaceOnUse"><stop offset="0" stop-color="#9819de"/><stop offset="1" stop-color="#07c3f2"/></linearGradient><linearGradient id="linear-gradient-2" x1="26.79" y1="19.04" x2="143.19" y2="145.65" gradientUnits="userSpaceOnUse"><stop offset="0" stop-color="#9819de"/><stop offset="0.87" stop-color="#07c3f2"/><stop offset="0.95" stop-color="#14cdce"/></linearGradient><radialGradient id="radial-gradient" cx="147.77" cy="147.11" r="110.58" gradientUnits="userSpaceOnUse"><stop offset="0" stop-color="#07c3f2"/><stop offset="0.5" stop-color="#3dea62"/><stop offset="0.57" stop-color="#41ea62"/><stop offset="0.64" stop-color="#4deb60"/><stop offset="0.71" stop-color="#60ed5e"/><stop offset="0.78" stop-color="#7cef5a"/><stop offset="0.84" stop-color="#a0f156"/><stop offset="0.91" stop-color="#cbf450"/><stop offset="0.97" stop-color="#fcf84a"/></radialGradient></defs><title>harpoon4Artboard 1 copy</title><g id="Layer_3_copy_2" data-name="Layer 3 copy 2"><rect id="BG" width="200" height="200"/><path class="cls-1" d="M16.79,16.39,89.48,89.26a1.5,1.5,0,0,0-.84.42A1.73,1.73,0,0,0,88.17,91v.48L16.41,16.81Z"/><polygon class="cls-2" points="176.35 176.26 168.37 174.97 135.32 140.57 100.54 104.37 97.44 101.15 93.19 96.72 93.19 93.11 93.32 93.11 99.42 99.23 102.92 102.73 138.02 137.87 176.06 175.97 176.35 176.26"/><path class="cls-3" d="M105.05,96.74a9.51,9.51,0,0,1-.64,3.68c-.11.26-.22.51-.34.73a7,7,0,0,1-1.15,1.58l-3.5-3.5c0-.12.09-.24.13-.37a6,6,0,0,0,.28-1.76v-.25A4.21,4.21,0,0,0,99.36,95a3,3,0,0,0-1.12-1.23,3.77,3.77,0,0,0-1.39-.53,2.7,2.7,0,0,0-.7,0,4,4,0,0,0-.84-.06H93.19v8.38h2.23a6.71,6.71,0,0,0,1.15-.09,3.75,3.75,0,0,0,.86-.25h0l3.1,3.22c-.22.1-.45.19-.68.27a1.69,1.69,0,0,1-.36.14,14,14,0,0,1-4.27.58h-2v7.87a.51.51,0,0,1-.14.34.77.77,0,0,1-.42.25,6.9,6.9,0,0,1-.75.17c-.31,0-.73.05-1.23.05s-.86,0-1.2-.05-.58-.12-.78-.17a.72.72,0,0,1-.39-.25.53.53,0,0,1-.11-.34V91a1.73,1.73,0,0,1,.47-1.34,1.5,1.5,0,0,1,.84-.42,2.38,2.38,0,0,1,.39,0h5.8c.59,0,1.15,0,1.68.06a16.08,16.08,0,0,1,1.9.31,8.38,8.38,0,0,1,2.23.81,6.89,6.89,0,0,1,2,1.48,6.32,6.32,0,0,1,1.2,2.12A8.37,8.37,0,0,1,105.05,96.74Z"/><path class="cls-3" d="M37.12,109.36a.5.5,0,0,1-.13.34.85.85,0,0,1-.41.25,4.41,4.41,0,0,1-.76.15,10,10,0,0,1-1.2.06,10.26,10.26,0,0,1-1.23-.06,4,4,0,0,1-.76-.15.9.9,0,0,1-.41-.25.54.54,0,0,1-.12-.34v-10H22.87v10a.54.54,0,0,1-.12.34.77.77,0,0,1-.4.25,4.41,4.41,0,0,1-.76.15,10.08,10.08,0,0,1-1.22.06,10.13,10.13,0,0,1-1.21-.06,4.36,4.36,0,0,1-.77-.15.8.8,0,0,1-.41-.25.5.5,0,0,1-.13-.34V86.05A.53.53,0,0,1,18,85.7a.8.8,0,0,1,.41-.24,3.52,3.52,0,0,1,.77-.16c.32,0,.73,0,1.21,0s.9,0,1.22,0a3.54,3.54,0,0,1,.76.16.76.76,0,0,1,.4.24.57.57,0,0,1,.12.35v9.06H32.1V86.05a.57.57,0,0,1,.12-.35.89.89,0,0,1,.41-.24,3.29,3.29,0,0,1,.76-.16c.32,0,.73,0,1.23,0s.88,0,1.2,0a3.54,3.54,0,0,1,.76.16.84.84,0,0,1,.41.24.53.53,0,0,1,.13.35Z"/><path class="cls-3" d="M62.72,108.18a6.93,6.93,0,0,1,.28,1.08.64.64,0,0,1-.15.6,1.19,1.19,0,0,1-.74.25c-.36,0-.85,0-1.47,0s-1.16,0-1.52,0a4.4,4.4,0,0,1-.83-.11.8.8,0,0,1-.4-.24,1.24,1.24,0,0,1-.19-.4l-1.66-5H46.77l-1.56,4.82a1.56,1.56,0,0,1-.2.45.87.87,0,0,1-.41.29,2.66,2.66,0,0,1-.78.14c-.33,0-.78,0-1.32,0a12.17,12.17,0,0,1-1.38-.06,1.05,1.05,0,0,1-.68-.27.74.74,0,0,1-.14-.62,6.54,6.54,0,0,1,.29-1.07l7.61-21.9a2.18,2.18,0,0,1,.27-.53,1,1,0,0,1,.48-.3,3.57,3.57,0,0,1,.93-.13q.59,0,1.56,0,1.13,0,1.8,0a4.35,4.35,0,0,1,1,.13,1,1,0,0,1,.53.31,1.84,1.84,0,0,1,.28.58ZM51.39,90.07h0l-3.49,10.49h7Z"/><path class="cls-3" d="M84.48,109.4a.75.75,0,0,1-.07.35A.69.69,0,0,1,84,110a3.52,3.52,0,0,1-.84.13c-.37,0-.87,0-1.5,0s-1,0-1.28,0a2.57,2.57,0,0,1-.75-.14.83.83,0,0,1-.4-.27,1.77,1.77,0,0,1-.19-.39l-2.21-5.51c-.27-.63-.53-1.18-.78-1.66a5.27,5.27,0,0,0-.85-1.21,3.07,3.07,0,0,0-1.08-.74,3.85,3.85,0,0,0-1.41-.25H71.19v9.41a.5.5,0,0,1-.13.34.85.85,0,0,1-.41.25,4.41,4.41,0,0,1-.76.15,10.2,10.2,0,0,1-1.22.06,10,10,0,0,1-1.21-.06,4.7,4.7,0,0,1-.78-.15.81.81,0,0,1-.4-.25.6.6,0,0,1-.11-.34V86.94a1.51,1.51,0,0,1,.43-1.21,1.59,1.59,0,0,1,1.06-.37h6.39c.65,0,1.18,0,1.6,0l1.14.09a10.81,10.81,0,0,1,2.68.73,6.47,6.47,0,0,1,2,1.34,5.81,5.81,0,0,1,1.27,2,7.23,7.23,0,0,1,.43,2.6,7.62,7.62,0,0,1-.31,2.26A5.86,5.86,0,0,1,82,96.22a6.07,6.07,0,0,1-1.5,1.39,8.33,8.33,0,0,1-2,1,6.24,6.24,0,0,1,1,.65,5,5,0,0,1,.91.93,7.82,7.82,0,0,1,.81,1.24,15.49,15.49,0,0,1,.75,1.57L84,107.81c.19.49.31.84.38,1.06A2.15,2.15,0,0,1,84.48,109.4ZM78,92.65a3.64,3.64,0,0,0-.56-2.06,3,3,0,0,0-1.81-1.18,5.92,5.92,0,0,0-.87-.16,11.93,11.93,0,0,0-1.34,0H71.19v7h2.55a6.12,6.12,0,0,0,1.87-.26A3.6,3.6,0,0,0,77,95.21a3,3,0,0,0,.8-1.11A3.75,3.75,0,0,0,78,92.65Z"/><path class="cls-3" d="M157.58,97.42a18.54,18.54,0,0,1-.76,5.49,11.07,11.07,0,0,1-2.27,4.11,9.77,9.77,0,0,1-3.73,2.58,13.84,13.84,0,0,1-5.14.88,15.26,15.26,0,0,1-5-.75,8.75,8.75,0,0,1-3.58-2.3,9.79,9.79,0,0,1-2.14-3.93,19.62,19.62,0,0,1-.72-5.64,17.63,17.63,0,0,1,.77-5.39,10.82,10.82,0,0,1,2.27-4.08A10,10,0,0,1,141,85.82a13.74,13.74,0,0,1,5.16-.9,15,15,0,0,1,5,.75A8.6,8.6,0,0,1,154.67,88a10,10,0,0,1,2.18,3.9A19.07,19.07,0,0,1,157.58,97.42Zm-5.27.26a19.13,19.13,0,0,0-.3-3.53,7.44,7.44,0,0,0-1-2.73,5,5,0,0,0-2-1.76,6.73,6.73,0,0,0-3-.62,6.2,6.2,0,0,0-3.09.7,5.67,5.67,0,0,0-2,1.86,7.6,7.6,0,0,0-1.08,2.72,16.48,16.48,0,0,0-.31,3.29,19.87,19.87,0,0,0,.3,3.63,8,8,0,0,0,1,2.76,4.75,4.75,0,0,0,1.95,1.74,6.94,6.94,0,0,0,3.07.6,6.31,6.31,0,0,0,3.09-.68,5.52,5.52,0,0,0,2-1.87A7.89,7.89,0,0,0,152,101,17,17,0,0,0,152.31,97.68Z"/><path class="cls-3" d="M182.15,108.29a1.94,1.94,0,0,1-.15.78,1.74,1.74,0,0,1-.41.57,1.6,1.6,0,0,1-.61.34,2.55,2.55,0,0,1-.72.1h-2.14A4.34,4.34,0,0,1,177,110a2.35,2.35,0,0,1-.9-.49,4.37,4.37,0,0,1-.79-.95c-.25-.4-.54-.92-.86-1.56l-6.14-11.54c-.35-.68-.72-1.42-1.09-2.22s-.7-1.57-1-2.32h0c.05.92.09,1.83.12,2.74s0,1.85,0,2.82v12.91a.58.58,0,0,1-.11.34.8.8,0,0,1-.36.26,2.92,2.92,0,0,1-.7.16,8.56,8.56,0,0,1-1.12.06,8.39,8.39,0,0,1-1.11-.06,2.94,2.94,0,0,1-.69-.16.73.73,0,0,1-.34-.26.64.64,0,0,1-.09-.34V87.15a1.67,1.67,0,0,1,.52-1.34,1.91,1.91,0,0,1,1.29-.45h2.69a4.75,4.75,0,0,1,1.22.13,2.3,2.3,0,0,1,.88.41,3,3,0,0,1,.74.79,10.29,10.29,0,0,1,.71,1.25l4.8,9,.83,1.61c.28.53.54,1.06.79,1.58s.51,1,.75,1.56.47,1,.7,1.53h0c0-.89-.06-1.82-.08-2.79s0-1.89,0-2.77V86.11a.61.61,0,0,1,.11-.35,1.06,1.06,0,0,1,.38-.27,2.78,2.78,0,0,1,.71-.16,11.24,11.24,0,0,1,1.13,0,10.6,10.6,0,0,1,1.08,0,2.26,2.26,0,0,1,.68.16.77.77,0,0,1,.33.27.6.6,0,0,1,.1.35Z"/><path class="cls-3" d="M131.16,97.42a18.21,18.21,0,0,1-.76,5.49,11.07,11.07,0,0,1-2.27,4.11,9.77,9.77,0,0,1-3.73,2.58,13.84,13.84,0,0,1-5.14.88,15.26,15.26,0,0,1-5-.75,8.75,8.75,0,0,1-3.58-2.3,9.79,9.79,0,0,1-2.14-3.93,19.62,19.62,0,0,1-.72-5.64,17.63,17.63,0,0,1,.77-5.39,10.82,10.82,0,0,1,2.27-4.08,10,10,0,0,1,3.72-2.57,13.74,13.74,0,0,1,5.16-.9,15,15,0,0,1,5,.75A8.6,8.6,0,0,1,128.25,88a10,10,0,0,1,2.18,3.9A19.07,19.07,0,0,1,131.16,97.42Zm-5.26.26a19.08,19.08,0,0,0-.31-3.53,7.44,7.44,0,0,0-1-2.73,5,5,0,0,0-2-1.76,6.81,6.81,0,0,0-3.06-.62,6.2,6.2,0,0,0-3.09.7,5.67,5.67,0,0,0-2,1.86,7.6,7.6,0,0,0-1.08,2.72,16.48,16.48,0,0,0-.31,3.29,19.87,19.87,0,0,0,.3,3.63,8,8,0,0,0,1,2.76,4.75,4.75,0,0,0,2,1.74,6.94,6.94,0,0,0,3.07.6,6.31,6.31,0,0,0,3.09-.68,5.52,5.52,0,0,0,2-1.87,7.89,7.89,0,0,0,1.08-2.76A17,17,0,0,0,125.9,97.68Z"/><path class="cls-4" d="M178.55,178.48s-1.82.37-5.17.7C155.47,181.13,94,182.9,38.11,127c2.73,1.91,61.62,42.72,96.77,14l3.14-3.14,38,38.1.29.29Z"/></g></svg>