<svg id="Layer_1" data-name="Layer 1" xmlns="http://www.w3.org/2000/svg" xmlns:xlink="http://www.w3.org/1999/xlink" viewBox="0 0 200 200"><defs><style>.cls-1{fill:url(#linear-gradient);}.cls-2{fill:url(#linear-gradient-2);}.cls-3{fill:url(#linear-gradient-3);}.cls-4{opacity:0;fill:url(#linear-gradient-4);}.cls-5{fill:url(#linear-gradient-5);}.cls-6{fill:url(#linear-gradient-6);}</style><linearGradient id="linear-gradient" x1="7.86" y1="43.35" x2="102.84" y2="140.37" gradientUnits="userSpaceOnUse"><stop offset="0.29" stop-color="#6b57ff"/><stop offset="0.71" stop-color="#07c3f2"/></linearGradient><linearGradient id="linear-gradient-2" x1="93.32" y1="81.65" x2="133.91" y2="135.65" gradientUnits="userSpaceOnUse"><stop offset="0" stop-color="#07c3f2"/><stop offset="0.19" stop-color="#0bc6e3"/><stop offset="0.57" stop-color="#14cdbd"/><stop offset="1" stop-color="#21d789"/></linearGradient><linearGradient id="linear-gradient-3" x1="21.72" y1="100.35" x2="172.19" y2="172.18" gradientUnits="userSpaceOnUse"><stop offset="0.1" stop-color="#dfeef2"/><stop offset="0.14" stop-color="#c3e8f2"/><stop offset="0.2" stop-color="#a7e3f2"/><stop offset="0.25" stop-color="#92def2"/><stop offset="0.32" stop-color="#83dbf2"/><stop offset="0.39" stop-color="#7adaf2"/><stop offset="0.5" stop-color="#77d9f2"/><stop offset="0.58" stop-color="#73d6f2"/><stop offset="0.66" stop-color="#66cbf3"/><stop offset="0.75" stop-color="#52baf5"/><stop offset="0.84" stop-color="#35a2f7"/><stop offset="0.92" stop-color="#1083f9"/><stop offset="0.94" stop-color="#087dfa"/></linearGradient><linearGradient id="linear-gradient-4" x1="170.92" y1="165.23" x2="160.23" y2="154.94" gradientUnits="userSpaceOnUse"><stop offset="0" stop-color="#0897f7"/><stop offset="0.81" stop-color="#6b57ff"/></linearGradient><linearGradient id="linear-gradient-5" x1="122.54" y1="111.72" x2="30.49" y2="23.04" gradientUnits="userSpaceOnUse"><stop offset="0" stop-color="#07b6f3"/><stop offset="0.81" stop-color="#6b57ff"/></linearGradient><linearGradient id="linear-gradient-6" x1="23.7" y1="100.72" x2="166.93" y2="164.81" gradientUnits="userSpaceOnUse"><stop offset="0" stop-color="#3fcef2"/><stop offset="0.03" stop-color="#2ccaf2"/><stop offset="0.08" stop-color="#1bc7f2"/><stop offset="0.14" stop-color="#10c5f2"/><stop offset="0.22" stop-color="#09c3f2"/><stop offset="0.44" stop-color="#07c3f2"/><stop offset="0.56" stop-color="#07bef3"/><stop offset="0.71" stop-color="#07aef4"/><stop offset="0.87" stop-color="#0894f7"/><stop offset="1" stop-color="#087cfa"/></linearGradient></defs><title>harpoonArtboard 1</title><g id="Ready_-_right" data-name="Ready - right"><path id="_1" data-name="1" class="cls-1" d="M177.11,169.07q-3.88,1.88-7.94,3.42A109.66,109.66,0,0,1,22.91,94s0,0,0,0a109.11,109.11,0,0,0,72.41,27.35,110.15,110.15,0,0,0,14.38-.94q2.58-.34,5.13-.81C113,115,97.53,80.25,33.26,20.87l-.58-.55a.71.71,0,0,1-.09-.07,1,1,0,0,1,.17.11.26.26,0,0,1,.1.07l.3.21a3.4,3.4,0,0,1,.27.21c3,2.26,12.11,9.36,24.91,20.23a1.74,1.74,0,0,0,.15.13A790,790,0,0,1,134,114.29a529,529,0,0,1,39,48.79C174.38,165.07,175.76,167.06,177.11,169.07Z"/><path id="_2" data-name="2" class="cls-2" d="M126.7,116.74a106.42,106.42,0,0,1-11.88,2.82c-.66-2.23-1.4-4.44-2.23-6.66-.26-.69-.53-1.36-.81-2.05s-.55-1.39-.84-2.06-.67-1.54-1-2.3a.3.3,0,0,0-.06-.14c-.33-.74-.67-1.48-1-2.22A153.73,153.73,0,0,0,93.48,79.06c.21.23.42.44.63.68L96.24,82c.11.11.22.24.32.36.3.31.58.62.87.93L99,85q2.85,3.09,5.67,6.24c1.87,2.07,3.74,4.18,5.6,6.28s3.71,4.23,5.54,6.35,3.52,4.09,5.26,6.15c.15.16.29.33.42.49Q124.11,113.6,126.7,116.74Z"/><path id="_3" data-name="3" class="cls-3" d="M177.11,169.07q-3.88,1.88-7.94,3.42A109.66,109.66,0,0,1,22.91,94s0,0,0,0a109.11,109.11,0,0,0,72.41,27.35,110.15,110.15,0,0,0,14.38-.94q2.58-.34,5.13-.81a106.42,106.42,0,0,0,11.88-2.82c2.46-.74,4.89-1.56,7.27-2.45a529,529,0,0,1,39,48.79C174.38,165.07,175.76,167.06,177.11,169.07Z"/><path class="cls-4" d="M173,163.08q-4,1.81-8.14,3.28c-2.21-3.11-4.43-6.19-6.69-9.26l8.14-3.29C168.58,156.87,170.8,160,173,163.08Z"/><path class="cls-5" d="M166.3,153.81l-8.14,3.29q-15.1-20.68-31.46-40.36c-1.17-1.42-2.35-2.82-3.54-4.24-.5-.58-1-1.18-1.49-1.76-.07-.07-.13-.16-.19-.23s-.27-.33-.42-.49c-.3-.34-.6-.71-.9-1.06-.71-.84-1.44-1.7-2.17-2.54s-1.45-1.69-2.19-2.55-1.59-1.85-2.4-2.76c-.39-.46-.78-.91-1.18-1.36-.65-.75-1.3-1.49-2-2.23-.93-1.06-1.86-2.1-2.8-3.15s-1.86-2.1-2.8-3.13Q101.86,88.09,99,85l-1.56-1.7c-.39-.43-.79-.87-1.19-1.29s-.94-1-1.41-1.51L93.42,79l-.16-.17c-1.91-2-3.84-4.08-5.79-6.12-.84-.88-1.69-1.77-2.55-2.65-.25-.28-.51-.54-.76-.8l-2.54-2.61q-2.93-3-5.91-6c-2-2-4-4-6-5.94s-4-3.88-5.95-5.81l-.08-.07q-3-2.93-6.09-5.81c-.88-.85-1.76-1.68-2.65-2.5s-1.78-1.68-2.68-2.5l-.82-.76c-2.06-1.93-4.13-3.82-6.21-5.7-1-.91-2-1.79-2.95-2.67s-2-1.79-3-2.67c-.24-.2-.48-.41-.72-.64l-.45-.39-2.52-2.23-3-2.62a.71.71,0,0,1-.09-.07,1,1,0,0,1,.17.11.26.26,0,0,1,.1.07l.3.21a3.4,3.4,0,0,1,.27.21c3,2.26,12.11,9.36,24.91,20.23a1.74,1.74,0,0,0,.15.13A790,790,0,0,1,134,114.29C145.11,126.74,156.1,140,166.3,153.81Z"/><path id="_5" data-name="5" class="cls-6" d="M173,163.08q-4,1.81-8.14,3.28A109.69,109.69,0,0,1,22.91,94s0,0,0,0a109.11,109.11,0,0,0,72.41,27.35,110.15,110.15,0,0,0,14.38-.94q2.58-.34,5.13-.81a106.42,106.42,0,0,0,11.88-2.82c2.46-.74,4.89-1.56,7.27-2.45A529,529,0,0,1,173,163.08Z"/></g></svg>